#N canvas -8 -8 1366 685 12;
#X obj 89 18 midiout;
#X obj 410 65 vsl 15 128 0 127 0 0 empty empty empty 0 -9 0 10 -262144
-1 -1 0 1;
#X obj 467 60 vsl 15 128 0 127 0 0 empty empty empty 0 -9 0 10 -262144
-1 -1 12700 1;
#X obj 538 62 vsl 15 128 0 127 0 0 empty empty empty 0 -9 0 10 -262144
-1 -1 12700 1;
#X floatatom 541 216 5 0 0 0 - - -;
#X floatatom 459 219 5 0 0 0 - - -;
#X floatatom 386 220 5 0 0 0 - - -;
#X obj 355 255 ctlout 100;
#X obj 437 255 ctlout 101;
#X obj 524 256 ctlout 102;
#X floatatom 608 219 5 0 0 0 - - -;
#X obj 614 65 vsl 15 128 0 127 0 0 empty empty empty 0 -9 0 10 -262144
-1 -1 0 1;
#X obj 614 254 ctlout 103;
#X text 597 31 NOISE;
#X obj 103 118 vsl 15 128 0 127 0 0 empty empty empty 0 -9 0 10 -262144
-1 -1 3300 1;
#X floatatom 89 266 5 0 0 0 - - -;
#X floatatom 42 577 5 0 0 0 - - -;
#X obj 52 427 vsl 15 128 0 127 0 0 empty empty empty 0 -9 0 10 -262144
-1 -1 2600 1;
#X text 31 389 Filt Cutoff;
#X obj 48 612 ctlout 104;
#X obj 17 25 tgl 15 0 empty empty empty 17 7 0 10 -262144 -1 -1 1 1
;
#X obj 103 321 makenote;
#X obj 27 337 noteout;
#X obj 23 233 bng 15 250 50 0 empty empty empty 17 7 0 10 -262144 -1
-1;
#X obj 192 114 vsl 15 128 0 127 0 0 empty empty empty 0 -9 0 10 -262144
-1 -1 6600 1;
#X floatatom 192 267 5 0 0 0 - - -;
#X obj 243 116 vsl 15 128 0 127 0 0 empty empty empty 0 -9 0 10 -262144
-1 -1 4100 1;
#X floatatom 232 267 5 0 0 0 - - -;
#X floatatom 179 304 5 0 0 0 - - -;
#X obj 224 298 * 8;
#X obj 148 119 vsl 15 128 0 127 0 0 empty empty empty 0 -9 0 10 -262144
-1 -1 4400 1;
#X floatatom 139 270 5 0 0 0 - - -;
#X obj 7 182 select 0 1;
#X obj 53 228 bng 15 250 50 0 empty empty empty 17 7 0 10 -262144 -1
-1;
#X obj 14 122 float;
#X obj 70 116 + 1;
#X obj 34 153 mod 2;
#X text 94 86 note1;
#X text 126 101 note2;
#X text 171 85 velocity;
#X text 238 96 duration;
#X obj 767 69 vsl 15 128 0 127 0 0 empty empty empty 0 -9 0 10 -262144
-1 -1 0 1;
#X obj 829 60 vsl 15 128 0 127 0 0 empty empty empty 0 -9 0 10 -262144
-1 -1 900 1;
#X obj 900 62 vsl 15 128 0 127 0 0 empty empty empty 0 -9 0 10 -262144
-1 -1 12700 1;
#X floatatom 903 216 5 0 0 0 - - -;
#X floatatom 821 219 5 0 0 0 - - -;
#X floatatom 748 220 5 0 0 0 - - -;
#X floatatom 970 219 5 0 0 0 - - -;
#X obj 976 65 vsl 15 128 0 127 0 0 empty empty empty 0 -9 0 10 -262144
-1 -1 600 1;
#X text 760 34 a;
#X text 813 33 d;
#X text 882 32 s;
#X text 959 31 r;
#X obj 717 255 ctlout 109;
#X obj 799 255 ctlout 110;
#X obj 886 256 ctlout 111;
#X obj 976 254 ctlout 112;
#X obj 189 424 vsl 15 128 0 127 0 0 empty empty empty 0 -9 0 10 -262144
-1 -1 1100 1;
#X obj 251 415 vsl 15 128 0 127 0 0 empty empty empty 0 -9 0 10 -262144
-1 -1 2400 1;
#X obj 322 417 vsl 15 128 0 127 0 0 empty empty empty 0 -9 0 10 -262144
-1 -1 900 1;
#X floatatom 325 571 5 0 0 0 - - -;
#X floatatom 243 574 5 0 0 0 - - -;
#X floatatom 170 575 5 0 0 0 - - -;
#X floatatom 392 574 5 0 0 0 - - -;
#X obj 398 420 vsl 15 128 0 127 0 0 empty empty empty 0 -9 0 10 -262144
-1 -1 3500 1;
#X text 182 389 a;
#X text 235 388 d;
#X text 304 387 s;
#X obj 139 610 ctlout 113;
#X obj 221 610 ctlout 114;
#X obj 308 611 ctlout 115;
#X obj 398 609 ctlout 116;
#X floatatom 478 575 5 0 0 0 - - -;
#X obj 484 421 vsl 15 128 0 127 0 0 empty empty empty 0 -9 0 10 -262144
-1 -1 2700 1;
#X text 381 386 r;
#X obj 484 610 ctlout 117;
#X text 463 388 vcf ammount;
#X obj 668 423 vsl 15 128 0 127 0 0 empty empty empty 0 -9 0 10 -262144
-1 -1 7800 1;
#X obj 730 414 vsl 15 128 0 127 0 0 empty empty empty 0 -9 0 10 -262144
-1 -1 6400 1;
#X obj 801 416 vsl 15 128 0 127 0 0 empty empty empty 0 -9 0 10 -262144
-1 -1 3300 1;
#X floatatom 804 570 5 0 0 0 - - -;
#X floatatom 722 573 5 0 0 0 - - -;
#X floatatom 649 574 5 0 0 0 - - -;
#X floatatom 871 573 5 0 0 0 - - -;
#X obj 877 419 vsl 15 128 0 127 0 0 empty empty empty 0 -9 0 10 -262144
-1 -1 0 1;
#X floatatom 957 574 5 0 0 0 - - -;
#X obj 963 420 vsl 15 128 0 127 0 0 empty empty empty 0 -9 0 10 -262144
-1 -1 600 1;
#X text 661 388 lfo F;
#X text 714 387 lfo Amt;
#X text 783 386 fmod 1;
#X text 860 385 fmod2;
#X text 942 387 fmod3;
#X floatatom 1048 575 5 0 0 0 - - -;
#X obj 1054 421 vsl 15 128 0 127 0 0 empty empty empty 0 -9 0 10 -262144
-1 -1 0 1;
#X floatatom 1134 576 5 0 0 0 - - -;
#X obj 1140 422 vsl 15 128 0 127 0 0 empty empty empty 0 -9 0 10 -262144
-1 -1 7300 1;
#X text 1037 387 shpmod2;
#X text 1119 389 shpmod3;
#X floatatom 1250 580 5 0 0 0 - - -;
#X obj 1256 426 vsl 15 128 0 127 0 0 empty empty empty 0 -9 0 10 -262144
-1 -1 6200 1;
#X text 1235 393 vcfmod;
#X obj 618 609 ctlout 118;
#X obj 700 609 ctlout 119;
#X obj 787 610 ctlout 120;
#X obj 877 608 ctlout 121;
#X obj 963 609 ctlout 122;
#X obj 1054 610 ctlout 123;
#X obj 1140 611 ctlout 124;
#X obj 1256 615 ctlout 125;
#X text 520 32 3 tri;
#X text 451 33 2 SQARE;
#X text 398 34 1 SAW;
#N canvas -8 -8 1366 685 fx 1;
#X obj 275 217 vsl 15 128 0 127 0 0 empty empty empty 0 -9 0 10 -262144
-1 -1 0 1;
#X obj 168 218 vsl 15 128 0 127 0 0 empty empty empty 0 -9 0 10 -262144
-1 -1 0 1;
#X text 263 188 Dry Mix R;
#X obj 746 118 vsl 15 128 0 127 0 0 empty empty empty 0 -9 0 10 -262144
-1 -1 12400 1;
#X floatatom 738 277 5 0 0 0 - - -;
#X obj 650 124 vsl 15 128 0 127 0 0 empty empty empty 0 -9 0 10 -262144
-1 -1 12600 1;
#X floatatom 636 277 5 0 0 0 - - -;
#X text 632 89 BC Mix L;
#X text 734 89 BC Mix R;
#X text 161 188 Dry Mix L;
#X obj 1256 93 vsl 15 128 0 127 0 0 empty empty empty 0 -9 0 10 -262144
-1 -1 10400 1;
#X floatatom 1248 252 5 0 0 0 - - -;
#X obj 1154 93 vsl 15 128 0 127 0 0 empty empty empty 0 -9 0 10 -262144
-1 -1 9200 1;
#X floatatom 1146 252 5 0 0 0 - - -;
#X obj 614 313 ctlout 97;
#X obj 716 313 ctlout 96;
#X obj 1124 288 ctlout 93;
#X obj 1226 288 ctlout 92;
#X text 1244 64 Rveb Mix R;
#X text 1142 64 Rvb Mix L;
#X obj 1166 381 vsl 15 128 0 127 0 0 empty empty empty 0 -9 0 10 -262144
-1 -1 8500 1;
#X obj 1237 383 vsl 15 128 0 127 0 0 empty empty empty 0 -9 0 10 -262144
-1 -1 1300 1;
#X floatatom 1240 537 5 0 0 0 - - -;
#X floatatom 1158 540 5 0 0 0 - - -;
#X text 1150 354 size;
#X text 1219 353 Damp;
#X obj 657 384 vsl 15 128 0 127 0 0 empty empty empty 0 -9 0 10 -262144
-1 -1 3000 1;
#X obj 728 386 vsl 15 128 0 127 0 0 empty empty empty 0 -9 0 10 -262144
-1 -1 800 1;
#X floatatom 731 540 5 0 0 0 - - -;
#X floatatom 649 543 5 0 0 0 - - -;
#X text 641 357 bits;
#X text 710 356 rate;
#X obj 135 389 outlet l;
#X obj 140 161 inlet l;
#X obj 271 161 inlet r;
#X obj 275 396 outlet r;
#X floatatom 275 364 5 0 0 0 - - -;
#X floatatom 150 360 5 0 0 0 - - -;
#X obj 627 579 ctlout 95;
#X obj 715 580 ctlout 94;
#X obj 1136 576 ctlout 91;
#X obj 1224 577 ctlout 90;
#X connect 0 0 36 0;
#X connect 1 0 37 0;
#X connect 3 0 4 0;
#X connect 4 0 15 0;
#X connect 5 0 6 0;
#X connect 6 0 14 0;
#X connect 10 0 11 0;
#X connect 11 0 17 0;
#X connect 12 0 13 0;
#X connect 13 0 16 0;
#X connect 20 0 23 0;
#X connect 21 0 22 0;
#X connect 22 0 41 0;
#X connect 23 0 40 0;
#X connect 26 0 29 0;
#X connect 27 0 28 0;
#X connect 28 0 39 0;
#X connect 29 0 38 0;
#X connect 33 0 1 0;
#X connect 34 0 0 0;
#X connect 36 0 35 0;
#X connect 37 0 32 0;
#X restore 1211 216 pd fx;
#N canvas -8 -8 1366 685 delay 0;
#X obj 464 11 vsl 15 128 0 127 0 0 empty empty empty 0 -9 0 10 -262144
-1 -1 2200 1;
#X floatatom 497 87 5 0 0 0 - - -;
#X obj 362 11 vsl 15 128 0 127 0 0 empty empty empty 0 -9 0 10 -262144
-1 -1 12700 1;
#X floatatom 383 84 5 0 0 0 - - -;
#X text 341 48 DEL Mix L;
#X text 444 58 DEL Mix R;
#X obj 262 14 vsl 15 128 0 127 0 0 empty empty empty 0 -9 0 10 -262144
-1 -1 900 1;
#X floatatom 293 85 5 0 0 0 - - -;
#X text 240 55 DEL 1 Spd;
#X obj 79 232 vsl 15 128 0 127 0 0 empty empty empty 0 -9 0 10 -262144
-1 -1 0 1;
#X floatatom 62 390 5 0 0 0 - - -;
#X text 58 202 DEL Mix R;
#X obj 1279 277 vsl 15 128 0 127 0 0 empty empty empty 0 -9 0 10 -262144
-1 -1 0 1;
#X floatatom 1271 436 5 0 0 0 - - -;
#X text 1267 248 DEL Mix R;
#X obj 40 426 ctlout 38;
#X obj 1249 472 ctlout 39;
#X obj 290 118 ctlout 60;
#X obj 463 178 vsl 15 128 0 127 0 0 empty empty empty 0 -9 0 10 -262144
-1 -1 1600 1;
#X floatatom 496 254 5 0 0 0 - - -;
#X obj 361 178 vsl 15 128 0 127 0 0 empty empty empty 0 -9 0 10 -262144
-1 -1 12700 1;
#X floatatom 382 251 5 0 0 0 - - -;
#X text 340 215 DEL Mix L;
#X text 443 225 DEL Mix R;
#X obj 261 181 vsl 15 128 0 127 0 0 empty empty empty 0 -9 0 10 -262144
-1 -1 10500 1;
#X floatatom 292 252 5 0 0 0 - - -;
#X text 239 222 DEL 1 Spd;
#X obj 466 326 vsl 15 128 0 127 0 0 empty empty empty 0 -9 0 10 -262144
-1 -1 5100 1;
#X floatatom 499 402 5 0 0 0 - - -;
#X obj 364 326 vsl 15 128 0 127 0 0 empty empty empty 0 -9 0 10 -262144
-1 -1 2500 1;
#X floatatom 385 399 5 0 0 0 - - -;
#X text 343 363 DEL Mix L;
#X text 446 373 DEL Mix R;
#X obj 264 329 vsl 15 128 0 127 0 0 empty empty empty 0 -9 0 10 -262144
-1 -1 600 1;
#X floatatom 295 400 5 0 0 0 - - -;
#X text 242 370 DEL 1 Spd;
#X obj 466 488 vsl 15 128 0 127 0 0 empty empty empty 0 -9 0 10 -262144
-1 -1 4800 1;
#X floatatom 499 564 5 0 0 0 - - -;
#X obj 364 488 vsl 15 128 0 127 0 0 empty empty empty 0 -9 0 10 -262144
-1 -1 6200 1;
#X floatatom 385 561 5 0 0 0 - - -;
#X text 343 525 DEL Mix L;
#X text 446 535 DEL Mix R;
#X obj 264 491 vsl 15 128 0 127 0 0 empty empty empty 0 -9 0 10 -262144
-1 -1 1500 1;
#X floatatom 295 562 5 0 0 0 - - -;
#X text 242 532 DEL 1 Spd;
#X obj 911 16 vsl 15 128 0 127 0 0 empty empty empty 0 -9 0 10 -262144
-1 -1 0 1;
#X floatatom 944 92 5 0 0 0 - - -;
#X obj 809 16 vsl 15 128 0 127 0 0 empty empty empty 0 -9 0 10 -262144
-1 -1 12700 1;
#X floatatom 830 89 5 0 0 0 - - -;
#X text 788 53 DEL Mix L;
#X text 891 63 DEL Mix R;
#X obj 709 19 vsl 15 128 0 127 0 0 empty empty empty 0 -9 0 10 -262144
-1 -1 11400 1;
#X floatatom 740 90 5 0 0 0 - - -;
#X text 687 60 DEL 1 Spd;
#X obj 910 170 vsl 15 128 0 127 0 0 empty empty empty 0 -9 0 10 -262144
-1 -1 2900 1;
#X floatatom 943 246 5 0 0 0 - - -;
#X obj 808 170 vsl 15 128 0 127 0 0 empty empty empty 0 -9 0 10 -262144
-1 -1 12500 1;
#X floatatom 829 243 5 0 0 0 - - -;
#X text 787 207 DEL Mix L;
#X text 890 217 DEL Mix R;
#X obj 708 173 vsl 15 128 0 127 0 0 empty empty empty 0 -9 0 10 -262144
-1 -1 9400 1;
#X floatatom 739 244 5 0 0 0 - - -;
#X text 686 214 DEL 1 Spd;
#X obj 909 319 vsl 15 128 0 127 0 0 empty empty empty 0 -9 0 10 -262144
-1 -1 10800 1;
#X floatatom 942 395 5 0 0 0 - - -;
#X obj 807 319 vsl 15 128 0 127 0 0 empty empty empty 0 -9 0 10 -262144
-1 -1 12700 1;
#X floatatom 828 392 5 0 0 0 - - -;
#X text 786 356 DEL Mix L;
#X text 889 366 DEL Mix R;
#X obj 707 322 vsl 15 128 0 127 0 0 empty empty empty 0 -9 0 10 -262144
-1 -1 6400 1;
#X floatatom 738 393 5 0 0 0 - - -;
#X text 685 363 DEL 1 Spd;
#X obj 910 472 vsl 15 128 0 127 0 0 empty empty empty 0 -9 0 10 -262144
-1 -1 9700 1;
#X floatatom 943 548 5 0 0 0 - - -;
#X obj 808 472 vsl 15 128 0 127 0 0 empty empty empty 0 -9 0 10 -262144
-1 -1 12700 1;
#X floatatom 829 545 5 0 0 0 - - -;
#X text 787 509 DEL Mix L;
#X text 890 519 DEL Mix R;
#X obj 708 475 vsl 15 128 0 127 0 0 empty empty empty 0 -9 0 10 -262144
-1 -1 3100 1;
#X floatatom 739 546 5 0 0 0 - - -;
#X text 686 516 DEL 1 Spd;
#X obj 383 114 ctlout 61;
#X obj 486 122 ctlout 62;
#X obj 289 285 ctlout 63;
#X obj 382 281 ctlout 64;
#X obj 485 289 ctlout 65;
#X obj 292 433 ctlout 66;
#X obj 385 429 ctlout 67;
#X obj 488 437 ctlout 68;
#X obj 292 595 ctlout 69;
#X obj 385 591 ctlout 70;
#X obj 488 599 ctlout 71;
#X obj 737 123 ctlout 72;
#X obj 830 119 ctlout 73;
#X obj 933 127 ctlout 74;
#X obj 736 277 ctlout 75;
#X obj 829 273 ctlout 76;
#X obj 932 281 ctlout 77;
#X obj 735 426 ctlout 78;
#X obj 828 422 ctlout 79;
#X obj 931 430 ctlout 80;
#X obj 736 579 ctlout 81;
#X obj 829 575 ctlout 82;
#X obj 933 583 ctlout 83;
#X connect 0 0 1 0;
#X connect 1 0 82 0;
#X connect 2 0 3 0;
#X connect 3 0 81 0;
#X connect 6 0 7 0;
#X connect 7 0 17 0;
#X connect 9 0 10 0;
#X connect 10 0 15 0;
#X connect 12 0 13 0;
#X connect 13 0 16 0;
#X connect 18 0 19 0;
#X connect 19 0 85 0;
#X connect 20 0 21 0;
#X connect 21 0 84 0;
#X connect 24 0 25 0;
#X connect 25 0 83 0;
#X connect 27 0 28 0;
#X connect 28 0 88 0;
#X connect 29 0 30 0;
#X connect 30 0 87 0;
#X connect 33 0 34 0;
#X connect 34 0 86 0;
#X connect 36 0 37 0;
#X connect 37 0 91 0;
#X connect 38 0 39 0;
#X connect 39 0 90 0;
#X connect 42 0 43 0;
#X connect 43 0 89 0;
#X connect 45 0 46 0;
#X connect 46 0 94 0;
#X connect 47 0 48 0;
#X connect 48 0 93 0;
#X connect 51 0 52 0;
#X connect 52 0 92 0;
#X connect 54 0 55 0;
#X connect 55 0 97 0;
#X connect 56 0 57 0;
#X connect 57 0 96 0;
#X connect 60 0 61 0;
#X connect 61 0 95 0;
#X connect 63 0 64 0;
#X connect 64 0 100 0;
#X connect 65 0 66 0;
#X connect 66 0 99 0;
#X connect 69 0 70 0;
#X connect 70 0 98 0;
#X connect 72 0 73 0;
#X connect 73 0 103 0;
#X connect 74 0 75 0;
#X connect 75 0 102 0;
#X connect 78 0 79 0;
#X connect 79 0 101 0;
#X restore 1287 310 pd delay;
#X obj 1276 58 vsl 15 128 0 127 0 0 empty empty empty 0 -9 0 10 -262144
-1 -1 0 1;
#X floatatom 1268 217 5 0 0 0 - - -;
#X obj 1174 58 vsl 15 128 0 127 0 0 empty empty empty 0 -9 0 10 -262144
-1 -1 0 1;
#X floatatom 1166 217 5 0 0 0 - - -;
#X obj 1144 253 ctlout 99;
#X text 1264 29 Dry Mix R;
#X text 1162 29 Dry Mix L;
#X obj 1246 253 ctlout 98;
#X obj 16 87 metro 1500;
#X connect 1 0 6 0;
#X connect 2 0 5 0;
#X connect 3 0 4 0;
#X connect 4 0 9 0;
#X connect 5 0 8 0;
#X connect 6 0 7 0;
#X connect 10 0 12 0;
#X connect 11 0 10 0;
#X connect 14 0 15 0;
#X connect 15 0 21 0;
#X connect 16 0 19 0;
#X connect 17 0 16 0;
#X connect 20 0 122 0;
#X connect 21 0 22 0;
#X connect 21 1 22 1;
#X connect 23 0 15 0;
#X connect 23 0 25 0;
#X connect 23 0 27 0;
#X connect 24 0 25 0;
#X connect 25 0 21 1;
#X connect 26 0 27 0;
#X connect 27 0 29 0;
#X connect 28 0 21 2;
#X connect 29 0 28 0;
#X connect 30 0 31 0;
#X connect 31 0 21 0;
#X connect 32 0 23 0;
#X connect 32 1 33 0;
#X connect 33 0 31 0;
#X connect 33 0 25 0;
#X connect 33 0 27 0;
#X connect 34 0 36 0;
#X connect 34 0 35 0;
#X connect 35 0 34 1;
#X connect 36 0 32 0;
#X connect 41 0 46 0;
#X connect 42 0 45 0;
#X connect 43 0 44 0;
#X connect 44 0 55 0;
#X connect 45 0 54 0;
#X connect 46 0 53 0;
#X connect 47 0 56 0;
#X connect 48 0 47 0;
#X connect 57 0 62 0;
#X connect 58 0 61 0;
#X connect 59 0 60 0;
#X connect 60 0 70 0;
#X connect 61 0 69 0;
#X connect 62 0 68 0;
#X connect 63 0 71 0;
#X connect 64 0 63 0;
#X connect 72 0 75 0;
#X connect 73 0 72 0;
#X connect 77 0 82 0;
#X connect 78 0 81 0;
#X connect 79 0 80 0;
#X connect 80 0 103 0;
#X connect 81 0 102 0;
#X connect 82 0 101 0;
#X connect 83 0 104 0;
#X connect 84 0 83 0;
#X connect 85 0 105 0;
#X connect 86 0 85 0;
#X connect 92 0 106 0;
#X connect 93 0 92 0;
#X connect 94 0 107 0;
#X connect 95 0 94 0;
#X connect 98 0 108 0;
#X connect 99 0 98 0;
#X connect 112 0 116 0;
#X connect 112 1 114 0;
#X connect 114 0 115 0;
#X connect 114 0 112 1;
#X connect 115 0 121 0;
#X connect 116 0 117 0;
#X connect 116 0 112 0;
#X connect 117 0 118 0;
#X connect 122 0 34 0;
