#N canvas -8 -8 1366 685 12;
#X obj 615 525 midiout;
#X obj 484 95 vsl 15 128 0 127 0 0 empty empty empty 0 -9 0 10 -262144
-1 -1 500 1;
#X obj 541 90 vsl 15 128 0 127 0 0 empty empty empty 0 -9 0 10 -262144
-1 -1 9200 1;
#X obj 612 92 vsl 15 128 0 127 0 0 empty empty empty 0 -9 0 10 -262144
-1 -1 12700 1;
#X floatatom 615 246 5 0 0 0 - - -;
#X floatatom 533 249 5 0 0 0 - - -;
#X floatatom 460 250 5 0 0 0 - - -;
#X obj 429 285 ctlout 100;
#X obj 511 285 ctlout 101;
#X obj 598 286 ctlout 102;
#X floatatom 682 249 5 0 0 0 - - -;
#X obj 688 95 vsl 15 128 0 127 0 0 empty empty empty 0 -9 0 10 -262144
-1 -1 1800 1;
#X obj 688 284 ctlout 103;
#X text 472 64 SAW;
#X text 525 63 SQARE;
#X text 594 62 SIN;
#X text 671 61 NOISE;
#X obj 103 118 vsl 15 128 0 127 0 0 empty empty empty 0 -9 0 10 -262144
-1 -1 4700 1;
#X floatatom 89 266 5 0 0 0 - - -;
#X obj 227 340 ctlout 99;
#X floatatom 190 575 5 0 0 0 - - -;
#X obj 200 425 vsl 15 128 0 127 0 0 empty empty empty 0 -9 0 10 -262144
-1 -1 900 1;
#X text 179 387 Filt Cutoff;
#X obj 196 610 ctlout 104;
#X obj 16 87 metro 500;
#X obj 17 25 tgl 15 0 empty empty empty 17 7 0 10 -262144 -1 -1 1 1
;
#X obj 108 344 makenote;
#X obj 104 388 noteout;
#X obj 23 233 bng 15 250 50 0 empty empty empty 17 7 0 10 -262144 -1
-1;
#X obj 192 114 vsl 15 128 0 127 0 0 empty empty empty 0 -9 0 10 -262144
-1 -1 6700 1;
#X floatatom 192 267 5 0 0 0 - - -;
#X obj 243 116 vsl 15 128 0 127 0 0 empty empty empty 0 -9 0 10 -262144
-1 -1 8400 1;
#X floatatom 232 267 5 0 0 0 - - -;
#X floatatom 192 325 5 0 0 0 - - -;
#X obj 224 298 * 8;
#X obj 142 123 vsl 15 128 0 127 0 0 empty empty empty 0 -9 0 10 -262144
-1 -1 4400 1;
#X floatatom 139 270 5 0 0 0 - - -;
#X obj 7 182 select 0 1;
#X obj 53 228 bng 15 250 50 0 empty empty empty 17 7 0 10 -262144 -1
-1;
#X obj 14 122 float;
#X obj 70 116 + 1;
#X obj 34 153 mod 2;
#X text 94 86 note1;
#X text 126 101 note2;
#X text 171 85 velocity;
#X text 238 96 duration;
#X connect 1 0 6 0;
#X connect 2 0 5 0;
#X connect 3 0 4 0;
#X connect 4 0 9 0;
#X connect 5 0 8 0;
#X connect 6 0 7 0;
#X connect 10 0 12 0;
#X connect 11 0 10 0;
#X connect 17 0 18 0;
#X connect 18 0 26 0;
#X connect 20 0 23 0;
#X connect 21 0 20 0;
#X connect 24 0 39 0;
#X connect 25 0 24 0;
#X connect 26 0 27 0;
#X connect 26 1 27 1;
#X connect 28 0 18 0;
#X connect 28 0 30 0;
#X connect 28 0 32 0;
#X connect 29 0 30 0;
#X connect 30 0 26 1;
#X connect 31 0 32 0;
#X connect 32 0 34 0;
#X connect 33 0 26 2;
#X connect 34 0 33 0;
#X connect 35 0 36 0;
#X connect 36 0 26 0;
#X connect 37 0 28 0;
#X connect 37 1 38 0;
#X connect 38 0 36 0;
#X connect 38 0 30 0;
#X connect 38 0 32 0;
#X connect 39 0 41 0;
#X connect 39 0 40 0;
#X connect 40 0 39 1;
#X connect 41 0 37 0;
